<?xml version="1.0" standalone="no"?>
<!DOCTYPE svg PUBLIC "-//W3C//DTD SVG 20010904//EN"
 "http://www.w3.org/TR/2001/REC-SVG-20010904/DTD/svg10.dtd">
<svg version="1.0" xmlns="http://www.w3.org/2000/svg"
 width="601.000000pt" height="601.000000pt" viewBox="0 0 601.000000 601.000000"
 preserveAspectRatio="xMidYMid meet">

<g transform="translate(0.000000,601.000000) scale(0.100000,-0.100000)"
fill="#000000" stroke="none">
<path d="M992 4123 c-29 -24 -202 -243 -202 -255 0 -6 51 -8 128 -6 l127 3
168 128 c92 71 167 132 167 138 0 5 -76 9 -184 9 -160 0 -186 -2 -204 -17z"/>
<path d="M3697 4123 c-4 -3 -7 -86 -7 -184 l0 -178 -102 -3 -103 -3 0 -145 0
-145 103 -3 102 -3 0 -372 c0 -404 5 -454 54 -527 68 -102 162 -134 396 -135
91 0 177 3 193 8 l27 8 -2 167 -3 167 -30 -5 c-16 -3 -65 -5 -108 -5 -66 0
-81 3 -93 19 -11 16 -14 81 -14 348 l0 328 125 0 126 0 -3 148 -3 147 -122 3
-123 3 0 184 0 185 -203 0 c-112 0 -207 -3 -210 -7z"/>
<path d="M800 3776 c-257 -54 -444 -234 -510 -491 -28 -108 -28 -282 0 -391
62 -244 228 -412 465 -470 93 -23 276 -23 369 0 146 35 273 123 347 238 37 57
100 208 93 220 -3 4 -84 8 -179 8 l-175 0 -24 -37 c-54 -86 -124 -122 -236
-123 -41 0 -92 5 -113 11 -76 21 -141 103 -154 194 l-6 45 449 2 449 3 3 90
c9 265 -120 520 -321 634 -120 68 -316 97 -457 67z m250 -339 c44 -23 91 -90
105 -149 l7 -28 -242 0 -242 0 7 28 c14 57 55 112 108 142 46 26 61 30 133 30
65 0 89 -4 124 -23z"/>
<path d="M4895 3775 c-335 -74 -534 -357 -512 -730 20 -327 189 -540 497 -627
26 -7 104 -12 185 -13 119 0 151 4 215 23 288 90 448 302 467 617 18 306 -111
553 -350 670 -54 26 -124 51 -169 60 -92 18 -250 18 -333 0z m259 -327 c56
-17 128 -90 151 -153 11 -33 19 -91 22 -170 8 -190 -27 -290 -124 -358 -33
-24 -55 -31 -110 -34 -98 -7 -149 9 -204 67 -69 71 -84 123 -84 295 0 112 4
151 19 194 22 65 97 145 147 160 49 13 135 13 183 -1z"/>
<path d="M1463 3747 c3 -8 100 -150 216 -317 l210 -303 -53 -76 c-134 -193
-416 -609 -416 -615 0 -4 105 -5 233 -4 l232 3 118 175 c64 96 121 176 125
177 4 2 57 -72 117 -164 61 -91 116 -172 123 -180 19 -19 475 -19 470 0 -2 7
-109 165 -238 351 -129 186 -234 340 -234 343 1 2 95 137 208 299 114 161 209
300 212 309 5 13 -22 15 -223 15 l-230 0 -101 -151 -100 -151 -101 151 -101
151 -236 0 c-193 0 -235 -2 -231 -13z"/>
<path d="M2870 3731 c0 -62 71 -1277 75 -1288 5 -16 370 -19 380 -4 5 10 75
1181 75 1274 l0 47 -265 0 -265 0 0 -29z"/>
<path d="M3060 2355 c-225 -70 -225 -395 0 -470 120 -40 257 23 306 141 17 41
18 123 2 178 -19 62 -91 130 -157 150 -65 19 -91 19 -151 1z"/>
</g>
</svg>
