<svg id="svg" xmlns="http://www.w3.org/2000/svg" xmlns:xlink="http://www.w3.org/1999/xlink" width="400" height="173.99358745992163" viewBox="0, 0, 400,173.99358745992163"><g id="svgg"><path id="path0" d="M83.951 29.500 C 76.722 29.912,70.230 34.366,66.510 41.468 C 65.049 44.255,63.979 47.537,62.725 53.072 C 62.474 54.182,57.628 74.252,57.541 74.540 C 57.518 74.619,57.138 74.623,50.427 74.623 L 43.337 74.623 42.918 76.749 C 42.687 77.918,42.489 78.901,42.477 78.934 C 42.460 78.981,43.907 78.993,49.612 78.993 C 56.406 78.993,56.768 78.997,56.744 79.076 C 56.731 79.122,54.431 89.366,51.633 101.841 C 46.280 125.711,45.863 127.499,44.907 130.663 C 43.861 134.125,42.357 136.820,40.355 138.823 C 38.764 140.414,36.523 141.307,33.785 141.440 L 33.156 141.470 32.797 142.591 C 32.599 143.208,32.385 143.873,32.321 144.069 C 32.257 144.265,32.205 144.452,32.205 144.484 C 32.205 144.607,35.224 144.528,36.433 144.374 C 42.600 143.589,47.857 140.192,51.508 134.630 C 53.432 131.700,54.743 128.381,56.000 123.260 C 56.240 122.284,65.609 80.955,65.985 79.219 L 66.033 78.993 73.248 78.993 L 80.462 78.993 80.509 78.815 C 80.788 77.758,81.303 75.618,81.283 75.599 C 81.269 75.584,78.009 75.573,74.039 75.573 L 66.821 75.573 66.848 75.442 C 67.019 74.614,72.715 49.033,72.942 48.070 C 74.755 40.396,75.871 37.790,78.381 35.364 C 81.010 32.823,83.402 31.969,86.941 32.308 C 87.259 32.339,87.625 32.365,87.755 32.367 L 87.990 32.371 88.203 31.055 C 88.320 30.330,88.402 29.724,88.385 29.707 C 88.302 29.623,85.776 29.441,84.935 29.457 C 84.737 29.461,84.294 29.480,83.951 29.500 M134.378 44.651 C 134.378 44.730,134.048 46.210,133.645 47.941 C 127.365 74.875,121.774 99.636,121.176 103.158 C 120.174 109.065,121.620 112.867,125.370 114.186 C 127.375 114.891,131.136 115.172,133.971 114.828 C 134.591 114.753,135.461 114.596,135.506 114.551 C 135.531 114.527,136.037 111.517,136.040 111.381 C 136.041 111.311,135.996 111.315,135.601 111.413 C 134.531 111.681,133.142 111.730,132.077 111.537 C 128.381 110.866,128.058 108.797,130.150 99.181 C 131.878 91.239,139.104 60.380,142.807 45.125 C 142.874 44.851,142.928 44.600,142.928 44.567 C 142.928 44.520,142.042 44.508,138.653 44.508 L 134.378 44.508 134.378 44.651 M285.002 44.593 C 285.002 44.640,284.981 44.699,284.956 44.725 C 284.890 44.791,284.395 46.901,281.338 60.135 C 275.250 86.502,271.984 101.127,271.610 103.699 C 270.791 109.344,272.279 112.962,275.932 114.207 C 278.289 115.011,282.891 115.215,285.685 114.640 C 285.866 114.603,286.020 114.566,286.028 114.558 C 286.043 114.542,286.569 111.426,286.569 111.348 C 286.569 111.323,286.414 111.343,286.225 111.391 C 284.372 111.864,282.123 111.691,280.844 110.976 C 279.048 109.973,278.935 107.296,280.400 100.439 C 282.000 92.948,286.721 72.705,292.293 49.448 C 292.909 46.874,293.426 44.710,293.441 44.638 L 293.469 44.508 289.235 44.508 C 285.190 44.508,285.002 44.512,285.002 44.593 M303.194 44.581 C 303.194 44.621,302.723 46.689,302.146 49.177 C 294.785 80.934,290.378 100.523,289.924 103.503 C 289.024 109.419,290.489 113.004,294.322 114.258 C 295.899 114.774,298.986 115.083,301.271 114.953 C 302.641 114.875,304.334 114.642,304.334 114.531 C 304.334 114.514,304.452 113.787,304.596 112.917 C 304.739 112.046,304.857 111.327,304.857 111.318 C 304.857 111.310,304.702 111.343,304.513 111.393 C 303.261 111.721,301.910 111.750,300.564 111.479 C 297.858 110.932,297.267 109.349,297.925 104.411 C 298.346 101.258,303.414 79.277,311.314 46.347 C 311.551 45.361,311.744 44.543,311.744 44.530 C 311.744 44.518,309.821 44.508,307.469 44.508 C 303.650 44.508,303.194 44.516,303.194 44.581 M198.393 45.802 C 198.346 45.993,195.022 60.418,193.973 64.980 C 188.505 88.761,184.268 107.445,182.758 114.428 C 182.636 114.990,182.526 115.487,182.513 115.533 C 182.491 115.611,182.631 115.616,184.976 115.616 L 187.462 115.616 189.499 113.360 L 191.536 111.104 191.679 111.306 C 194.734 115.600,197.644 116.983,203.413 116.885 C 214.422 116.698,222.026 109.231,225.193 95.496 C 227.521 85.403,224.839 77.928,218.002 75.453 C 216.172 74.790,213.539 74.429,211.590 74.573 C 206.391 74.957,201.981 76.883,199.976 79.646 C 199.683 80.049,199.580 80.049,199.674 79.646 C 199.712 79.483,201.464 71.815,203.567 62.605 C 205.669 53.396,207.401 45.824,207.415 45.778 C 207.439 45.700,207.203 45.695,202.930 45.695 L 198.419 45.695 198.393 45.802 M96.449 73.797 C 86.148 74.809,78.529 83.401,76.551 96.236 C 74.585 108.996,79.206 115.684,89.989 115.684 C 95.281 115.684,98.839 114.267,103.262 110.397 C 103.534 110.159,103.769 109.976,103.785 109.990 C 103.800 110.004,104.283 111.003,104.858 112.210 L 105.904 114.404 107.969 114.404 L 110.033 114.404 114.342 94.597 C 116.712 83.703,118.652 74.752,118.653 74.706 C 118.656 74.628,118.419 74.623,114.333 74.623 C 111.956 74.623,110.011 74.636,110.011 74.653 C 110.011 74.681,109.155 78.336,109.053 78.744 C 108.994 78.976,108.721 79.051,108.658 78.853 C 108.593 78.648,107.763 77.470,107.385 77.045 C 105.094 74.474,101.232 73.327,96.449 73.797 M162.142 73.751 C 152.085 74.553,144.486 82.441,142.104 94.549 C 139.410 108.244,144.035 115.713,155.210 115.711 C 160.417 115.710,164.122 114.237,168.446 110.450 C 168.752 110.182,169.011 109.963,169.021 109.963 C 169.031 109.963,169.518 110.968,170.103 112.196 L 171.167 114.428 173.219 114.428 C 175.131 114.428,175.271 114.423,175.295 114.345 C 175.317 114.276,183.826 75.153,183.907 74.753 L 183.933 74.622 179.551 74.635 L 175.168 74.647 174.664 76.796 C 174.090 79.245,174.105 79.212,173.801 78.672 C 172.275 75.964,169.702 74.358,166.055 73.836 C 165.534 73.762,162.765 73.701,162.142 73.751 M330.507 73.752 C 330.416 73.760,330.095 73.791,329.795 73.819 C 320.135 74.726,312.493 83.038,310.277 95.048 C 307.839 108.256,312.279 115.473,322.978 115.697 C 328.627 115.815,332.022 114.474,337.117 110.112 C 337.220 110.024,337.310 109.960,337.316 109.969 C 337.323 109.979,337.802 110.981,338.380 112.196 L 339.431 114.404 341.494 114.417 L 343.558 114.429 343.585 114.298 C 343.682 113.823,352.176 74.772,352.196 74.706 C 352.220 74.627,351.990 74.623,347.833 74.623 L 343.445 74.623 342.954 76.725 C 342.684 77.881,342.453 78.855,342.440 78.889 C 342.383 79.043,342.218 78.906,341.953 78.485 C 340.203 75.699,337.593 74.189,333.844 73.791 C 333.256 73.728,331.021 73.702,330.507 73.752 M251.752 73.843 C 250.600 73.940,250.249 73.978,249.590 74.076 C 240.064 75.490,232.620 82.420,230.452 91.893 C 228.086 102.225,230.877 110.111,238.196 113.778 C 244.399 116.886,251.989 116.538,257.855 112.875 C 258.520 112.460,259.542 111.737,259.541 111.683 C 259.540 111.656,256.948 108.634,256.788 108.473 C 256.764 108.449,256.586 108.529,256.376 108.657 C 253.181 110.596,249.748 111.230,246.226 110.529 C 241.290 109.548,238.531 105.866,238.115 99.703 C 238.061 98.903,238.082 96.903,238.150 96.438 L 238.179 96.236 252.696 96.224 L 267.213 96.212 267.370 95.666 C 268.830 90.585,268.415 84.895,266.299 80.988 C 264.095 76.919,260.450 74.557,255.409 73.933 C 254.847 73.863,252.267 73.800,251.752 73.843 M166.584 78.012 C 171.602 78.938,173.251 84.327,171.353 93.595 C 168.796 106.077,162.378 113.402,154.988 112.271 C 150.007 111.509,148.453 106.370,150.459 97.299 C 151.958 90.520,153.869 85.960,156.678 82.461 C 159.418 79.048,163.139 77.377,166.584 78.012 M334.983 78.039 C 339.620 78.968,341.322 83.817,339.912 92.079 C 337.714 104.953,331.452 112.906,323.960 112.337 C 318.095 111.892,316.457 106.282,319.106 95.713 C 320.747 89.171,322.545 85.183,325.285 82.011 C 328.013 78.854,331.638 77.369,334.983 78.039 M100.884 78.044 C 106.268 78.521,108.148 83.799,106.280 93.191 C 103.820 105.557,97.827 112.859,90.565 112.340 C 84.232 111.888,82.861 105.784,86.303 93.362 C 89.103 83.258,94.595 77.487,100.884 78.044 M253.923 78.304 C 259.003 79.026,261.178 83.850,259.775 91.284 L 259.674 91.818 249.371 91.818 L 239.067 91.818 239.099 91.687 C 239.419 90.396,240.264 88.255,241.082 86.664 C 244.201 80.597,248.834 77.580,253.923 78.304 M210.665 78.797 C 215.447 79.632,217.421 84.418,216.409 92.721 C 215.137 103.153,210.065 111.429,204.212 112.622 C 200.021 113.476,197.060 111.420,196.062 106.963 C 194.640 100.612,196.818 89.372,200.574 83.688 C 203.105 79.856,206.714 78.107,210.665 78.797 M361.240 103.462 C 358.029 104.133,356.120 107.468,357.138 110.627 C 358.484 114.803,364.150 115.667,366.797 112.101 C 369.769 108.096,366.130 102.439,361.240 103.462 " stroke="none" fill="#000000" fill-rule="evenodd"></path></g></svg>