<?xml version="1.0" standalone="no"?>
<!DOCTYPE svg PUBLIC "-//W3C//DTD SVG 20010904//EN"
 "http://www.w3.org/TR/2001/REC-SVG-20010904/DTD/svg10.dtd">
<svg version="1.0" xmlns="http://www.w3.org/2000/svg"
 width="2508.000000pt" height="873.000000pt" viewBox="0 0 2508.000000 873.000000"
 preserveAspectRatio="xMidYMid meet">

<g transform="translate(0.000000,873.000000) scale(0.100000,-0.100000)"
fill="#000000" stroke="none">
<path d="M5822 8676 c-29 -8 -87 -30 -130 -51 -76 -37 -102 -62 -1385 -1344
l-1307 -1306 2 -2735 3 -2735 26 -66 c14 -37 38 -88 54 -115 43 -75 150 -174
230 -216 142 -74 -82 -68 2648 -68 1765 0 2471 3 2509 11 222 47 405 233 452
461 14 69 16 348 16 2770 l0 2693 -1307 1307 c-1234 1233 -1312 1308 -1379
1341 -39 20 -98 43 -131 51 -73 19 -226 20 -301 2z m296 -591 c44 -20 79 -46
116 -86 71 -76 99 -147 99 -249 0 -270 -278 -442 -526 -327 -81 38 -132 89
-173 173 -34 67 -38 83 -37 152 0 98 28 173 90 242 113 126 280 163 431 95z
m-718 -4100 l0 -1985 1135 0 1135 0 0 -565 0 -565 -1700 0 -1700 0 0 2550 0
2550 565 0 565 0 0 -1985z"/>
<path d="M3210 7554 l-865 -315 -1125 -2416 c-619 -1328 -1136 -2443 -1149
-2477 -32 -83 -41 -253 -17 -345 36 -142 136 -283 251 -356 52 -33 1956 -925
1974 -925 8 0 11 806 11 2660 l0 2660 787 798 c432 438 836 847 897 909 60 62
108 114 106 117 -3 2 -394 -137 -870 -310z"/>
<path d="M11610 3490 l0 -2620 570 0 570 0 2 1499 3 1499 2164 -1574 c1190
-866 2167 -1574 2172 -1574 5 0 9 1109 9 2635 l0 2635 -570 0 -570 0 -2 -1514
-3 -1514 -2164 1574 c-1191 866 -2168 1574 -2173 1574 -4 0 -8 -1179 -8 -2620z"/>
<path d="M22075 6103 c-353 -33 -766 -165 -1072 -343 -752 -437 -1236 -1169
-1344 -2035 -16 -129 -16 -491 0 -620 76 -611 341 -1161 763 -1587 406 -410
909 -670 1488 -769 159 -27 545 -38 713 -19 531 57 1030 266 1439 602 205 169
430 425 573 653 134 212 268 530 329 775 60 247 70 342 70 655 0 313 -10 408
-70 655 -61 245 -195 563 -329 775 -437 694 -1166 1156 -1974 1250 -115 14
-473 18 -586 8z m387 -1083 c681 -56 1244 -519 1432 -1175 75 -262 75 -598 0
-860 -257 -895 -1201 -1391 -2085 -1095 -403 135 -764 456 -942 840 -108 230
-151 430 -151 690 0 195 19 322 75 492 199 609 754 1050 1393 1107 130 12 148
12 278 1z"/>
<path d="M9690 3430 l0 -2560 570 0 570 0 0 2560 0 2560 -570 0 -570 0 0
-2560z"/>
<path d="M17880 3430 l0 -2560 575 0 575 0 0 2560 0 2560 -575 0 -575 0 0
-2560z"/>
</g>
</svg>
