<?xml version="1.0" standalone="no"?>
<!DOCTYPE svg PUBLIC "-//W3C//DTD SVG 20010904//EN"
 "http://www.w3.org/TR/2001/REC-SVG-20010904/DTD/svg10.dtd">
<svg version="1.0" xmlns="http://www.w3.org/2000/svg"
 width="1660.000000pt" height="1201.000000pt" viewBox="0 0 1660.000000 1201.000000"
 preserveAspectRatio="xMidYMid meet">

<g transform="translate(0.000000,1201.000000) scale(0.100000,-0.100000)"
fill="#000000" stroke="none">
<path d="M4730 10684 c-89 -24 -173 -77 -540 -337 -262 -187 -383 -328 -397
-462 -7 -64 11 -143 43 -190 l23 -35 -23 0 c-50 0 -152 -40 -194 -76 -88 -75
-124 -211 -87 -323 19 -58 91 -139 144 -160 17 -8 31 -17 31 -20 0 -4 -45 -38
-100 -75 -484 -328 -923 -746 -1216 -1157 -332 -467 -529 -963 -589 -1484 -20
-177 -20 -747 0 -940 38 -355 121 -691 250 -1007 51 -124 112 -248 130 -263 6
-5 42 -64 80 -130 322 -570 835 -1102 1460 -1516 953 -631 2187 -1028 3580
-1153 350 -32 552 -40 975 -40 541 0 893 21 1360 80 1379 175 2578 623 3475
1301 516 390 923 847 1205 1353 29 52 61 104 71 116 25 27 119 239 175 393 89
245 151 499 190 776 22 158 31 759 14 948 -43 497 -204 957 -490 1408 -294
463 -761 931 -1287 1290 -73 49 -133 92 -133 94 0 3 17 13 38 24 38 20 110 91
131 130 26 48 33 129 16 194 -34 133 -112 199 -277 232 l-27 5 27 48 c24 41
27 58 27 137 0 80 -3 97 -30 150 -44 88 -172 211 -355 342 -250 178 -411 284
-480 317 -60 29 -73 31 -175 31 -99 0 -116 -3 -169 -28 -82 -38 -130 -81 -462
-409 -160 -159 -292 -286 -295 -284 -2 2 -74 22 -159 44 -851 220 -1746 317
-2670 291 -714 -20 -1373 -109 -2037 -275 l-222 -55 -288 284 c-317 314 -388
377 -450 407 -89 42 -194 50 -293 24z m203 -215 c46 -23 874 -841 1050 -1037
118 -132 240 -286 310 -392 82 -125 536 -1047 837 -1700 262 -568 862 -1999
933 -2226 82 -259 96 -538 37 -697 -50 -133 -214 -254 -416 -307 -128 -33
-268 -48 -784 -85 -865 -61 -1007 -65 -1540 -45 -749 29 -1407 105 -1945 225
-264 60 -378 68 -475 35 -36 -12 -84 -35 -108 -51 -24 -16 -46 -29 -50 -29
-10 0 -179 229 -244 330 -286 445 -447 921 -474 1404 l-7 115 34 6 c214 37
830 57 1121 36 503 -37 1041 -138 1636 -306 507 -144 1079 -364 1410 -543 l84
-45 -25 49 c-35 69 -92 253 -116 376 -50 253 -59 386 -71 1053 -16 894 -30
1104 -92 1360 -51 216 -123 405 -243 645 -69 137 -87 159 -158 190 -45 20 -59
21 -215 15 -164 -7 -169 -6 -282 23 -150 40 -257 79 -410 152 -147 71 -262
102 -565 154 -216 38 -277 54 -332 90 -93 61 -81 183 21 206 86 19 214 -18
423 -122 185 -92 220 -98 328 -58 179 66 200 72 237 67 48 -6 66 -21 181 -149
143 -158 203 -190 331 -174 l54 7 -132 122 c-210 195 -358 349 -396 412 -31
53 -35 67 -35 130 1 65 4 75 48 149 25 44 45 82 42 84 -5 5 -61 -30 -165 -103
l-71 -49 -34 18 c-45 25 -56 43 -91 150 l-29 89 -17 -69 c-9 -38 -17 -99 -17
-137 -1 -63 -3 -68 -27 -77 -14 -6 -44 -10 -67 -10 -40 -1 -41 -1 -22 -16 11
-8 39 -20 63 -27 l44 -12 -4 -47 c-2 -27 -1 -48 2 -48 10 0 56 35 82 63 20 19
37 27 63 27 42 0 71 -26 116 -105 35 -61 36 -78 5 -99 -34 -22 -233 -76 -281
-76 -89 1 -182 65 -321 222 -137 154 -164 193 -164 236 0 72 55 123 340 314
107 73 246 167 308 210 62 43 122 83 135 88 39 16 106 11 150 -11z m6935 -18
c187 -116 628 -427 686 -483 66 -64 69 -68 63 -104 -8 -49 -37 -90 -161 -231
-196 -222 -274 -254 -478 -197 -168 48 -176 60 -108 168 61 97 107 109 173 45
71 -68 77 -69 77 -6 l0 54 38 6 c21 4 46 13 57 21 19 15 19 15 -10 16 -16 1
-45 6 -64 13 -35 12 -35 12 -37 78 -2 63 -20 174 -31 193 -3 4 -18 -31 -33
-78 -34 -104 -48 -128 -91 -148 l-33 -16 -109 74 c-59 41 -113 74 -118 74 -6
0 13 -44 42 -97 47 -90 51 -102 46 -149 -3 -29 -12 -65 -21 -82 -35 -68 -145
-189 -335 -367 -111 -103 -198 -191 -195 -196 9 -14 142 -10 179 5 55 23 101
63 198 171 49 55 101 108 116 117 44 30 109 23 228 -24 150 -58 210 -59 314
-3 211 113 354 165 453 165 65 0 96 -16 119 -60 22 -44 16 -85 -20 -122 -50
-52 -116 -74 -338 -112 -325 -56 -438 -87 -581 -156 -133 -65 -371 -149 -499
-175 -70 -15 -96 -15 -201 -5 -142 15 -200 6 -264 -41 -32 -24 -53 -55 -111
-170 -126 -252 -206 -473 -252 -694 -51 -241 -63 -437 -77 -1227 -13 -723 -26
-912 -79 -1158 -18 -78 -87 -296 -116 -363 -5 -12 41 7 151 62 753 376 1833
685 2744 786 248 27 576 38 810 26 254 -13 531 -39 545 -52 14 -14 -10 -292
-39 -450 -85 -456 -293 -903 -613 -1316 l-63 -82 -50 34 c-127 85 -251 92
-535 27 -426 -96 -797 -151 -1340 -196 -410 -35 -564 -40 -1070 -41 -517 0
-523 1 -1088 43 -711 53 -819 71 -992 160 -98 51 -205 158 -233 235 -63 167
-43 454 48 727 91 271 686 1684 945 2245 151 327 416 878 591 1226 181 364
258 487 436 699 125 150 524 558 894 915 215 208 246 234 285 243 58 12 95 5
147 -27z m-2978 -412 c442 -27 889 -85 1305 -169 214 -43 455 -103 455 -112 0
-4 -45 -56 -99 -115 -337 -365 -543 -668 -790 -1163 -124 -249 -166 -343 -366
-815 -54 -126 -231 -536 -395 -910 -360 -823 -456 -1047 -525 -1230 -59 -159
-116 -347 -144 -480 -10 -49 -21 -83 -24 -75 -3 8 -17 69 -32 135 -71 309
-123 439 -770 1915 -119 272 -277 637 -350 810 -378 896 -612 1290 -1063 1791
l-130 144 106 27 c559 143 1266 237 1962 262 152 5 680 -4 860 -15z m-4702
-1074 c149 -37 319 -99 473 -171 276 -129 459 -171 689 -160 74 3 151 9 171
12 l35 6 61 -154 c161 -405 223 -627 254 -903 14 -118 16 -408 9 -1050 -4
-408 2 -540 36 -744 9 -52 22 -117 29 -145 7 -28 12 -52 10 -54 -2 -2 -71 22
-154 52 -455 169 -1286 419 -1726 520 -579 133 -1070 160 -1819 101 -104 -9
-190 -14 -191 -13 -6 7 18 177 40 297 154 802 704 1569 1562 2179 167 118 381
252 405 252 11 0 63 -11 116 -25z m8501 -57 c460 -289 876 -651 1176 -1023
373 -464 605 -987 669 -1510 8 -60 13 -111 11 -113 -1 -1 -46 2 -101 8 -54 5
-178 14 -274 19 -746 43 -1151 9 -1803 -154 -463 -116 -1246 -360 -1622 -504
-43 -17 -80 -29 -82 -27 -2 2 6 41 16 87 54 225 56 268 56 1089 1 744 1 769
23 908 28 176 65 323 131 512 44 128 165 439 173 445 2 1 37 -2 78 -6 292 -30
503 8 802 146 75 35 179 80 231 99 91 34 335 104 368 105 9 1 76 -36 148 -81z
m-4320 -4658 c104 -205 301 -312 676 -369 322 -49 1184 -106 1940 -127 594
-16 1465 66 2125 203 365 75 413 82 463 71 23 -5 51 -16 62 -24 19 -15 15 -20
-110 -142 -880 -856 -2215 -1455 -3785 -1696 -727 -112 -1563 -135 -2325 -65
-1772 163 -3346 802 -4328 1758 l-132 129 45 21 c25 11 56 21 70 21 34 0 139
-19 429 -80 348 -72 778 -132 1281 -177 270 -25 1082 -25 1535 0 1095 60 1432
102 1655 208 167 79 257 177 315 343 l28 78 17 -54 c9 -29 27 -73 39 -98z"/>
</g>
</svg>
